<svg xmlns="http://www.w3.org/2000/svg" viewBox="0 0 625.68 625.34"><defs><style>.cls-1{fill:none;stroke-linecap:round;stroke-linejoin:round;}.cls-1,.cls-2,.cls-3{stroke:#000;stroke-width:3px;}.cls-2{fill:#c9e6dd;}.cls-2,.cls-3{stroke-miterlimit:10;}.cls-3{fill:#fff;}</style></defs><g id="Layer_2" data-name="Layer 2"><g id="Banner"><g id="Graphic_Elements" data-name="Graphic Elements"><path class="cls-1" d="M29.74,252c10-4.33,16.38-1.85,26.43.33,12.34,2.69,14.9,6,24.76,15.05,10.3,9.43,13.73,21.21,14.91,34.74.9,10.21,1.54,20.07,3.12,30.29,1.36,8.82-.13,25.07,5.77,32,6.07,7.11,21.88,10.85,30.78,11,13.37.22,21.11-5.28,25-18.15,2.67-8.8,2.07-18.47,4.74-27.41,2.82-9.43,5.34-15.52,4.92-24.7-1-22.66,23.07-29.63,41.24-35.43,18.46-5.91,35.11-3.51,47-20.58,6-8.61,8.78-15.35,5.57-25.81-1.9-6.2-7-10.32-8.92-16.26-1.58-5-1.38-11.41-2.3-16.2-.77-4-2.58-9-1.42-13.9,2.94-12.53,20.73-22,31.79-27,15.13-6.89,39.28-10.54,48.64-25.4,4.52-7.17,7.35-17,6.1-25.54-1-7-4.27-7.41-7.45-12.89-5.69-9.79-5.41-17.84-17.79-22.33-9.18-3.33-23.78-1.81-33.44-.93-8.42.77-14.76,4.17-22.44,7.71s-14.41,4.24-23,4.51c-7.31.23-16.57,1.26-23.35-1.58-2.61-1.09-4.65-3.51-7.38-4.9-3.08-1.57-7.16-1.14-9.93-3.14-10-7.2-9.81-33.65-9.81-44.64-6.14,2.38-11.93,4.77-17.15,7-41.31,17.52-84.78,57-106.79,95.47C40.59,156,22.35,191,10.73,227.13a171.63,171.63,0,0,0-6.59,30C8.79,264.79,24.51,254.25,29.74,252Z"/><path class="cls-1" d="M314.25,606.67c1.36-11.36,7.17-18.9,7.11-30.69-.05-11.16-7.23-23.16,1-33,6.53-7.78,15.74-5.8,24.39-5.05,11.43,1,24,1.52,34.34-3.89,17.37-9.07,25.85-28.64,13-45-8.91-11.31-17.72-24.47-31.68-28.53-10.4-3-17-3.09-24.58-9.7a102.84,102.84,0,0,0-18.64-12.23c-15.27-7.82-34.56-9.44-44.56-25.48-9.11-14.62-7.53-29-21.83-40.88-9.79-8.17-28.55-9.68-38.72-.68-7.37,6.52-12,16.09-19.38,22.87-9.54,8.74-19.19,15.81-27.8,25.68-6.2,7.11-9.22,10.48-9.45,19.68-.15,6.28-.31,12.71-.05,19,.32,7.92,3.66,17.88,9.57,23.69s14.22,4,21,7.28c10.15,4.92,23.2,12.15,19.19,24.29-3.61,10.9-13.27,14.66-12.69,27,.39,8.24,4,18,11.87,22.19,11.92,6.41,29.52,6.09,28.37,24.5-.53,8.57-6.23,18.43,3,24.87,5.91,1.89,11.83,3.6,17.75,5,20.72,5,41.51,5.82,62.15,3.86C314.15,617.41,313.64,611.75,314.25,606.67Z"/><path class="cls-1" d="M237.66,612.61c-9.19-6.44-3.49-16.3-3-24.87,1.15-18.41-16.45-18.09-28.37-24.5-7.88-4.24-11.48-14-11.87-22.19-.58-12.39,9.08-16.15,12.69-27,4-12.14-9-19.37-19.19-24.29-6.78-3.29-15.23-1.61-21-7.28s-9.25-15.77-9.57-23.69c-.26-6.28-.1-12.71.05-19,.23-9.2,3.25-12.57,9.45-19.68,8.61-9.87,18.26-16.94,27.8-25.68,7.38-6.78,12-16.35,19.38-22.87,10.17-9,28.93-7.49,38.72.68,14.3,11.92,12.72,26.26,21.83,40.88,10,16,29.29,17.66,44.56,25.48a102.84,102.84,0,0,1,18.64,12.23c7.57,6.61,14.18,6.69,24.58,9.7,14,4.06,22.77,17.22,31.68,28.53,12.89,16.37,4.41,35.94-13,45-10.37,5.41-22.91,4.87-34.34,3.89-8.65-.75-17.86-2.73-24.39,5.05-8.26,9.85-1.08,21.85-1,33,.06,11.79-5.75,19.33-7.11,30.69-.61,5.08-.1,10.74,3.31,14.84"/><path class="cls-2" d="M624.18,279.52c.27-30.5-12.39-58.51-24.63-85.6-5.73-12.67-11.65-25.77-16.08-38.83-3.85-11.34-10.85-22.71-21.4-34.75l-1.89-2.16,0,.13c-11.78-13-25.75-24.86-39.32-36.29-7.44-6.28-14.48-12.21-20.78-18-3.09-2.86-6.21-6-9.23-9-10.34-10.26-21-20.87-34.31-26.32-10.66-4.38-22.68-6-34.3-7.56a220,220,0,0,1-22-3.72l-1.95-.47c-40-9.68-74.57-18-116.45-14.68-6,.48-17.93,1.16-19,1.18-19.11-2.08-45.22,3.42-79.82,16.83-5.4,2.1-11,4.38-17.17,7C125.22,44.51,81.18,83.88,58.81,123c-17.2,30-36.42,65.89-48.66,104a171,171,0,0,0-6.39,28.47v0L3.53,257c-4.73,35.52-.22,74.15,3.59,100.11.88,6.05,1.63,11.94,2.35,17.64,2.74,21.72,5.33,42.23,15.05,64.08,12.69,28.53,26,53.32,40.79,75.77,18.44,28.08,46.7,41.92,76.62,56.57l10,4.92c27.68,13.63,56.3,27.72,85.53,37.08l1.64.53v0c5.75,1.81,11.07,3.31,16.17,4.55a176.18,176.18,0,0,0,41.86,4.87q7.56,0,15.44-.58l-.24.08,5.29-.5,5.89-.56-.42,0c39.51-4.64,77.94-18.71,115.15-32.35l1.68-.62a235.84,235.84,0,0,0,45-21.89l0,.06,2-1.32,4.11-2.64-.22.07c22.27-15,42.06-34.05,63.63-61.23l1.14-1.43c31.3-39.44,58.34-73.5,64.1-123.91,1.84-16.06,3-33.27,3.73-53.86v0l.12-3.66.07-2.52h0C623.93,303.29,624.08,290.47,624.18,279.52Z"/><path class="cls-3" d="M29.74,252c10-4.33,16.38-1.85,26.43.33,12.34,2.69,14.9,6,24.76,15.05,10.3,9.43,13.73,21.21,14.91,34.74.9,10.21,1.54,20.07,3.12,30.29,1.36,8.82-.13,25.07,5.77,32,6.07,7.11,21.88,10.85,30.78,11,13.37.22,21.11-5.28,25-18.15,2.67-8.8,2.07-18.47,4.74-27.41,2.82-9.43,5.34-15.52,4.92-24.7-1-22.66,23.07-29.63,41.24-35.43,18.46-5.91,35.11-3.51,47-20.58,6-8.61,8.78-15.35,5.57-25.81-1.9-6.2-7-10.32-8.92-16.26-1.58-5-1.38-11.41-2.3-16.2-.77-4-2.58-9-1.42-13.9,2.94-12.53,20.73-22,31.79-27,15.13-6.89,39.28-10.54,48.64-25.4,4.52-7.17,7.35-17,6.1-25.54-1-7-4.27-7.41-7.45-12.89-5.69-9.79-5.41-17.84-17.79-22.33-9.18-3.33-23.78-1.81-33.44-.93-8.42.77-14.76,4.17-22.44,7.71s-14.41,4.24-23,4.51c-7.31.23-16.57,1.26-23.35-1.58-2.61-1.09-4.65-3.51-7.38-4.9-3.08-1.57-7.16-1.14-9.93-3.14-10-7.2-9.81-33.65-9.81-44.64-6.14,2.38-11.93,4.77-17.15,7-41.31,17.52-84.78,57-106.79,95.47C40.59,156,22.35,191,10.73,227.13a171.63,171.63,0,0,0-6.59,30C8.79,264.79,24.51,254.25,29.74,252Z"/><path class="cls-3" d="M314.25,606.67c1.36-11.36,7.17-18.9,7.11-30.69-.05-11.16-7.23-23.16,1-33,6.53-7.78,15.74-5.8,24.39-5.05,11.43,1,24,1.52,34.34-3.89,17.37-9.07,25.85-28.64,13-45-8.91-11.31-17.72-24.47-31.68-28.53-10.4-3-17-3.09-24.58-9.7a102.84,102.84,0,0,0-18.64-12.23c-15.27-7.82-34.56-9.44-44.56-25.48-9.11-14.62-7.53-29-21.83-40.88-9.79-8.17-28.55-9.68-38.72-.68-7.37,6.52-12,16.09-19.38,22.87-9.54,8.74-19.19,15.81-27.8,25.68-6.2,7.11-9.22,10.48-9.45,19.68-.15,6.28-.31,12.71-.05,19,.32,7.92,3.66,17.88,9.57,23.69s14.22,4,21,7.28c10.15,4.92,23.2,12.15,19.19,24.29-3.61,10.9-13.27,14.66-12.69,27,.39,8.24,4,18,11.87,22.19,11.92,6.41,29.52,6.09,28.37,24.5-.53,8.57-6.23,18.43,3,24.87,5.91,1.89,11.83,3.6,17.75,5,20.72,5,41.51,5.82,62.15,3.86C314.15,617.41,313.64,611.75,314.25,606.67Z"/><path class="cls-3" d="M582.89,155.28c-4.2-12.37-11.88-23.82-21.27-34.54-4.4-2-18.23,1.11-23.53,3-12.74,4.5-29.38,11.31-31.57,26.42-1.5,10.41.89,20.51-3.89,30.43-4.43,9.17-12.66,14.58-21.05,19.91-11.28,7.16-20.73,10.75-33.71,11.9-12.41,1.1-23.31,2-34.37,8.47-11.45,6.71-20.57,15.83-22.05,29.51-1.33,12.18.9,21.64-3.52,33.48-2.87,7.71-5.2,15.14-9,22.36-3.13,5.93-6.76,10.75-7.18,17.74-.6,10.1,3.86,13.95,11.1,19.87,6.81,5.57,14.32,13,17.36,21.22,1.3,3.54.24,8.55,1.66,12.15,1.81,4.57,5.4,7.82,8.59,11.58,20.16,23.75,45.69,42.53,62.7,69.13,8.64,13.51,16.09,22.74,13.76,39.09-1.67,11.7-4.76,23.32-6,35.08-1.31,12.63-.64,22,5.63,32.82,25.6-16.48,46.6-37.49,67.37-63.66,12.85-16.2,25.21-31.68,35.7-47.87-8,.39-11.11-18.68-19.42-22-9.54-3.82-22.19-1.11-32.34-4.94-7-2.62-6.91-3.2-9.22-9.11-1.46-3.76-1.59-6.57-3.53-10.34-1.46-2.86-4.41-5.61-5.47-8.55-4.41-12.22,2.6-30,12.28-38.23,8.45-7.22,19.9-8.29,30.43-9.24s22.79,4.23,32.92.17c12.63-5.06,17.79-24.51,27.61-32.37.4-13.11.57-26.21.69-39.21C624,234.8,596.72,196.06,582.89,155.28Z"/></g></g></g></svg>